<svg id="Capa_1" data-name="Capa 1" xmlns="http://www.w3.org/2000/svg" viewBox="0 0 474.89 201.06"><defs><style>.cls-1{fill:#FCE4EC;}</style></defs><title>logotipo03-02</title><polygon class="cls-1" points="301.24 20.35 301.16 51.96 301.16 118.33 269.03 150.83 200.02 150.83 200.02 118.69 203.88 118.69 203.88 20.35 248.48 20.35 263.58 35.45 263.58 81.46 231.63 49.5 231.27 61.44 236.89 67.41 236.89 117.28 255.86 117.28 269.9 103.94 269.9 20.35 301.24 20.35"/><polygon class="cls-1" points="317.34 20.32 317.34 150.83 361.3 107.3 361.3 61.92 422.28 61.92 463.89 20.3 380.22 20.3 374.77 25.75 362.25 25.75 362.25 20.32 317.34 20.32"/><polygon class="cls-1" points="367.06 74.64 367.06 107.73 415.1 107.73 384.38 74.64 367.06 74.64"/><polygon class="cls-1" points="187.78 150.83 187.78 20.3 121.44 20.3 17.4 125.89 17.4 186.23 137.76 64.94 147 64.94 147 88.64 152.84 94.49 152.84 107.73 105.13 107.73 83.27 129.59 104.51 150.83 187.78 150.83"/></svg>