<?xml version="1.0" encoding="utf-8"?>
<!-- Generator: Adobe Illustrator 24.0.1, SVG Export Plug-In . SVG Version: 6.00 Build 0)  -->
<svg version="1.1" id="Capa_1" xmlns="http://www.w3.org/2000/svg" xmlns:xlink="http://www.w3.org/1999/xlink" x="0px" y="0px"
	 viewBox="0 0 595.28 841.89" style="enable-background:new 0 0 595.28 841.89;" xml:space="preserve">
<style type="text/css">
	.st0{fill:#FFFFFF;}
	.st1{fill:none;stroke:#FFFFFF;stroke-miterlimit:10;}
	.st2{fill:#FFFFFF;}
	.st3{fill:none;stroke:#E62A27;stroke-miterlimit:10;}
	.st4{fill:none;stroke:#F1E623;stroke-miterlimit:10;}
	.st5{fill:none;stroke:#000000;}
</style>
<g>
	<polygon points="369.2,338.03 369.12,369.64 369.12,436.01 336.99,468.5 267.98,468.5 267.98,436.36 271.84,436.36 271.84,338.03 
		316.44,338.03 331.54,353.13 331.54,399.14 299.58,367.18 299.23,379.12 304.85,385.09 304.85,434.96 323.82,434.96 337.86,421.61 
		337.86,338.03 	"/>
	<polygon points="385.3,338 385.29,468.5 429.26,424.98 429.26,379.6 490.24,379.6 531.85,337.98 448.18,337.98 442.73,343.43 
		430.2,343.43 430.2,338 	"/>
	<polygon points="435.02,392.32 435.02,425.41 483.06,425.41 452.34,392.32 	"/>
	<polygon points="255.74,468.5 255.74,337.98 189.4,337.98 85.36,443.57 85.36,503.91 205.72,382.62 214.95,382.62 214.95,406.32 
		220.8,412.17 220.8,425.41 173.09,425.41 151.23,447.26 172.47,468.5 	"/>
</g>
</svg>
