<?xml version="1.0" encoding="utf-8"?>
<!-- Generator: Adobe Illustrator 24.0.1, SVG Export Plug-In . SVG Version: 6.00 Build 0)  -->
<svg version="1.1" id="Capa_1" xmlns="http://www.w3.org/2000/svg" xmlns:xlink="http://www.w3.org/1999/xlink" x="0px" y="0px"
	 viewBox="0 0 16 16" style="enable-background:new 0 0 16 16;" xml:space="preserve">
<style type="text/css">
	.st0{fill:#43BDD8;}
</style>
<path class="st0" d="M14.83,4.31l-4.12-1.16c-0.64-0.66-1.45-1.17-2.39-1.44c-1.43-0.4-2.9-0.18-4.09,0.51L1.17,1.36l0.87,3.21
	C1.92,4.84,1.82,5.11,1.74,5.4C0.98,8.09,2.43,10.88,5,11.84l0.68,2.8l2.86-2.73c1.62-0.54,2.96-1.85,3.46-3.62
	c0.13-0.47,0.2-0.95,0.2-1.41L14.83,4.31z M8.15,2.31c0.77,0.22,1.44,0.62,1.99,1.14L9.74,3.78l-4.63-1.3
	C6.05,2.1,7.11,2.02,8.15,2.31z M6.26,5.84l2.23,0.63L6.87,8.25L6.26,5.84z M2.33,5.57c0-0.02,0.01-0.03,0.02-0.05l1.19,0.33
	l1.28,5.24C2.8,10.11,1.7,7.8,2.33,5.57z M11.41,8.13c-0.41,1.47-1.48,2.57-2.79,3.1l-0.14-0.69l3.06-2.99
	C11.5,7.73,11.46,7.93,11.41,8.13z"/>
</svg>
